<svg xmlns="http://www.w3.org/2000/svg" version="1.1" xmlns:xlink="http://www.w3.org/1999/xlink" xmlns:svgjs="http://svgjs.dev/svgjs" width="128" height="128" viewBox="0 0 128 128"><g transform="matrix(0.5819209039548022,0,0,0.5819209039548022,26.668854713883796,12.333870967741937)"><svg viewBox="0 0 112 155" data-background-color="#61777f" preserveAspectRatio="xMidYMid meet" height="177" width="128" xmlns="http://www.w3.org/2000/svg" xmlns:xlink="http://www.w3.org/1999/xlink"><g id="tight-bounds" transform="matrix(1,0,0,1,0.1326322930800643,0.25)"><svg viewBox="0 0 111.73473541383989 154.5" height="154.5" width="111.73473541383989"><g><svg viewBox="0 0 111.73473541383989 154.5" height="154.5" width="111.73473541383989"><g><svg viewBox="0 0 111.73473541383989 154.5" height="154.5" width="111.73473541383989"><g id="textblocktransform"><svg viewBox="0 0 111.73473541383989 154.5" height="154.5" width="111.73473541383989" id="textblock"><g><svg viewBox="0 0 111.73473541383989 154.5" height="154.5" width="111.73473541383989"><g transform="matrix(1,0,0,1,0,0)"><svg width="111.73473541383989" viewBox="4.49 -35.99 26.03 35.99" height="154.5" data-palette-color="#ffffff"><g class="wordmark-text-0" data-fill-palette-color="primary" id="text-0"><path d="M24.56-11.18L24.56-35.99 30.52-35.99 30.52 0 24.56 0 12.45-21.29 12.45-32.52 24.56-11.18ZM10.45 0L4.49 0 4.49-35.99 10.45-35.99 10.45 0Z" fill="#000000" data-fill-palette-color="primary"></path></g></svg></g></svg></g></svg></g></svg></g></svg></g><defs></defs></svg><rect width="111.73473541383989" height="154.5" fill="none" stroke="none" visibility="hidden"></rect></g></svg></g></svg>